<svg 
 xmlns="http://www.w3.org/2000/svg"
 xmlns:xlink="http://www.w3.org/1999/xlink"
 width="2.293cm" height="2.293cm">
<path fill-rule="evenodd"  stroke="rgb(0, 0, 0)" stroke-width="0px" stroke-linecap="butt" stroke-linejoin="miter" fill="rgb(176, 176, 176)"
 d="M61.994,35.385 L35.914,35.385 L35.914,61.569 C35.914,63.171 34.616,64.469 33.014,64.469 C31.412,64.469 30.114,63.171 30.114,61.569 L30.114,35.385 L3.826,35.385 C2.224,35.385 0.926,34.087 0.926,32.485 C0.926,30.883 2.224,29.585 3.826,29.585 L30.114,29.585 L30.114,3.401 C30.114,1.799 31.412,0.501 33.014,0.501 C34.616,0.501 35.914,1.799 35.914,3.401 L35.914,29.585 L61.994,29.585 C63.596,29.585 64.895,30.883 64.895,32.485 C64.895,34.087 63.596,35.385 61.994,35.385 Z"/>
</svg>